<?xml version="1.0" encoding="utf-8"?>
<!-- Generator: Adobe Illustrator 17.0.0, SVG Export Plug-In . SVG Version: 6.00 Build 0)  -->
<!DOCTYPE svg PUBLIC "-//W3C//DTD SVG 1.1//EN" "http://www.w3.org/Graphics/SVG/1.1/DTD/svg11.dtd">
<svg version="1.1" id="图层_1" xmlns="http://www.w3.org/2000/svg" xmlns:xlink="http://www.w3.org/1999/xlink" x="0px" y="0px"
	 width="497px" height="431px" viewBox="164.444 33.141 497 431" enable-background="new 164.444 33.141 497 431"
	 xml:space="preserve">
<path fill="#FFFFFF" stroke="#FFFFFF" stroke-miterlimit="10" d="M424.604,156.019c-0.754-1.024-1.865-1.636-3.111-2.048
	c1.048-3.794,1.35-7.684,0.937-10.532c-0.143-1.056,0.786-3.294,1.754-6.08c1.056-1.397,1.683-3.897,1.842-7.739
	c0.11-1.119,0.087-2.262-0.024-3.365c-0.079-3.31-0.523-6.54-1.143-9.715c0.23-24.279,1.167-40.55,1.167-40.55
	s-27.312-26.765-77.315-26.765c-50.011,0-77.314,24.986-77.314,24.986l1.119,42.082c-0.738,3.683-1.199,7.453-1.199,11.326
	c0,1.223,0.032,2.263,0.072,3.207l-0.072,0.143c0,0,0.048,0.151,0.111,0.421c0.198,3.016,0.683,4.588,1.453,5.08
	c1.396,4.714,1.143,11.778,2.095,17.897c-0.841,0.405-1.619,0.897-2.167,1.659c-2.365,3.206-1.364,10.199-1.364,15.057
	c0,9.818,5.984,17.771,13.365,17.795c9.231,35.304,34.352,60.679,63.981,60.679s54.749-25.383,63.98-60.694
	c7.302-0.144,13.207-8.024,13.207-17.771C425.969,166.219,426.977,159.225,424.604,156.019z M324.335,73.6h18.278V55.321h12.184
	V73.6h18.279v12.191h-18.279v18.279h-12.184V85.792h-18.278L324.335,73.6L324.335,73.6z M415.389,171.076
	c0,4.405-2.096,6.969-2.826,7.19l-8.008,0.159l-2.024,7.754c-8.246,31.574-29.843,52.79-53.741,52.79
	c-23.891,0-45.487-21.208-53.742-52.773l-1.984-7.874l-8.144-0.023c-0.794-0.238-2.889-2.817-2.889-7.223
	c0-1.207-0.056-6.112-0.111-7.485c-0.016-0.381,4.889,0.175,4.889,0.175l4.405-0.056l0.492-9.929
	c1.144-23.319,9.747-29.105,18.652-31.852h0.04l0,0c2.246,0,7.754,2.992,11.778,5.175c7.842,4.254,16.731,9.088,26.621,9.088
	c10.271,0,18.747-5.111,25.557-9.215c3.572-2.151,8.009-4.826,10.398-4.826c0.016,0,0.031,0,0.047,0
	c7.501,2.238,14.668,6.112,18.445,17.097c1.311,4.738,2.286,10.39,2.771,17.191l0.159,2.771c0.119,2.381,0.214,4.802,0.214,7.438
	c3.771,0.714,6.81-0.357,9.215-2.405c-0.016,1.023-0.056,2.087-0.095,2.913C415.436,168.528,415.389,169.861,415.389,171.076z"/>
<path fill="#FFFFFF" stroke="#FFFFFF" stroke-miterlimit="10" d="M426.144,404.894V261.368c-4.136-1.461-8.239-2.794-12.263-3.929
	c0-0.135-0.017-0.294-0.017-0.429c-7.69-2.088-15.128-3.644-22.009-4.707c-3.001,43.178-12.978,133.97-43.939,140.415
	c-30.955-6.445-40.939-97.237-43.94-140.415c-6.881,1.063-14.318,2.619-22.009,4.707c0,0.135-0.017,0.285-0.017,0.429
	c-7.111,1.992-14.445,4.477-21.835,7.596c-4.412,1.643-6.35,3.214-9.969,4.579c-14.072,7.057-28.018,16.573-40.574,29.399
	c-1.19,24.986,1.198,58.282,11.897,72.568c7.414,9.89,18.954,26.59,57.703,35.947c-0.016,0.135-0.024,0.254-0.032,0.389
	c11.533,2.667,25.296,4.723,42.122,5.755c9.231,0.937,18.51,1.198,26.653,1.15c8.143,0.048,17.413-0.214,26.652-1.15
	c16.834-1.024,30.589-3.088,42.122-5.755c-0.009-0.135-0.017-0.254-0.024-0.389C420.039,406.704,423.151,405.815,426.144,404.894z"
	/>
<g>
	<path fill="#FFFFFF" stroke="#FFFFFF" stroke-miterlimit="10" d="M441.676,196.474v230.524h190.927V196.474H441.676z
		 M447.772,420.903v-198.53h178.743v198.53H447.772z"/>
	<rect x="497.53" y="238.835" fill="#FFFFFF" stroke="#FFFFFF" stroke-miterlimit="10" width="76.164" height="8.644"/>
	<rect x="463.003" y="290.512" fill="#FFFFFF" stroke="#FFFFFF" stroke-miterlimit="10" width="86.315" height="6.096"/>
	<rect x="463.003" y="318.666" fill="#FFFFFF" stroke="#FFFFFF" stroke-miterlimit="10" width="110.698" height="6.096"/>
	<rect x="463.003" y="346.287" fill="#FFFFFF" stroke="#FFFFFF" stroke-miterlimit="10" width="86.315" height="6.096"/>
	<rect x="463.003" y="374.447" fill="#FFFFFF" stroke="#FFFFFF" stroke-miterlimit="10" width="110.698" height="6.096"/>
</g>
</svg>
