<!-- Generator: Adobe Illustrator 17.0.0, SVG Export Plug-In  -->
<svg version="1.1"
     xmlns="http://www.w3.org/2000/svg" xmlns:xlink="http://www.w3.org/1999/xlink" xmlns:a="http://ns.adobe.com/AdobeSVGViewerExtensions/3.0/"
     x="0px" y="0px" width="535.752px" height="484.421px" viewBox="0 0 535.752 484.421" enable-background="new 0 0 535.752 484.421"
     xml:space="preserve">
<defs>
</defs>
<path fill="#84cbc5" d="M267.876,0C119.931,0,0,119.925,0,267.87c0,88.994,43.408,167.833,110.186,216.551
    c21.621-66.457,84.024-114.502,157.69-114.502c73.66,0,136.069,48.045,157.69,114.496
    c66.779-48.712,110.186-127.551,110.186-216.545C535.752,119.925,415.821,0,267.876,0z M267.876,331.648
    c-56.355,0-102.049-45.688-102.049-102.049s45.694-102.043,102.049-102.043c56.361,0,102.055,45.688,102.055,102.049
    S324.237,331.648,267.876,331.648z"/>
</svg>
