<svg xmlns="http://www.w3.org/2000/svg" xmlns:xlink="http://www.w3.org/1999/xlink" version="1.1" x="0px" y="0px" viewBox="0 0 100 125" enable-background="new 0 0 100 100" xml:space="preserve"><path fill="#000000" d="M18.709,67.404c0.004,0.012,0.012,0.02,0.02,0.031l0.078-0.031C18.775,67.408,18.74,67.404,18.709,67.404z   M60.97,46.339c-0.016-0.043-1.04-2.585-1.244-3.117l-0.016,0.008c-1.173-2.71-2.39-5.116-3.629-7.247  c-3.058,0.563-6.273,1.42-9.547,2.648c-0.047,0.016-2.589,1.04-3.121,1.248l0.008,0.016c-2.878,1.248-5.413,2.542-7.638,3.864  c0.587,2.44,1.392,5.069,2.452,7.892c0.031,0.082,1.306,3.199,1.338,3.281l-0.008,0.008c1.42,3.262,3.058,6.187,4.795,8.78  c2.323-0.579,4.818-1.353,7.482-2.354c0.082-0.027,3.203-1.306,3.281-1.338l0.008,0.008c3.113-1.349,5.917-2.902,8.416-4.548  C62.98,52.546,62.143,49.468,60.97,46.339z"/><path fill="#000000" d="M50,7.848C26.722,7.848,7.848,26.722,7.848,50S26.722,92.152,50,92.152S92.152,73.278,92.152,50  S73.278,7.848,50,7.848z M86.661,36.585c0,1.713-0.778,3.242-2.002,4.251v0.004c-0.008,0.004-0.012,0.008-0.02,0.012  c-0.954,0.786-2.174,1.255-3.504,1.255c-3.051,0-5.522-2.472-5.522-5.522c0-3.051,2.472-5.526,5.522-5.526  S86.661,33.535,86.661,36.585z M77.545,26.789c0.008,0.008,0.012,0.012,0.02,0.02c0.008,0.008,0.016,0.016,0.02,0.023  c0.825,0.872,1.603,1.776,2.331,2.718c-0.09,0.016-0.176,0.031-0.262,0.047c-1.036,0.207-1.991,0.637-2.808,1.244  c-0.051,0.031-0.098,0.066-0.145,0.109c-0.485-0.688-0.989-1.353-1.521-1.998c-0.008-0.008-0.016-0.02-0.023-0.027  c-7.615-7.982-19.363-12.781-30.384-11.4c0-0.02-0.004-0.035-0.008-0.055c-0.016-0.086-0.043-0.192-0.074-0.309  c-0.098-0.43-0.242-0.849-0.426-1.24c0-0.004-0.004-0.004-0.004-0.008c-0.063-0.137-0.129-0.27-0.199-0.403v-0.004  c-0.055-0.219-0.125-0.434-0.207-0.649c-0.012-0.031-0.023-0.063-0.035-0.086c-0.012-0.035-0.023-0.063-0.031-0.082  c-0.035-0.086-0.078-0.164-0.117-0.246c-0.004-0.008-0.008-0.02-0.012-0.027C56.402,12.13,69.375,16.96,77.545,26.789z   M37.81,13.323c3.051,0,5.526,2.472,5.526,5.522c0,3.054-2.476,5.526-5.526,5.526c-3.051,0-5.526-2.472-5.526-5.526  C32.283,15.795,34.759,13.323,37.81,13.323z M20.871,28.603c0.023-0.035,0.051-0.07,0.074-0.106  c2.605-3.872,5.906-7.177,9.793-9.554c0,0,0.004,0,0.004-0.004c0.004,0.125,0.008,0.25,0.016,0.375  c0.066,1.044,0.36,2.026,0.829,2.894c0.055,0.098,0.106,0.192,0.164,0.282c-2.976,1.987-5.55,4.419-7.669,7.173c0,0,0,0-0.004,0.004  c-5.096,7.157-7.529,16.582-6.285,25.358c-0.031,0-0.067,0.008-0.098,0.016h-0.004c-0.055,0.012-0.137,0.027-0.242,0.047  c-0.039,0.012-0.082,0.023-0.129,0.031c-0.082,0.023-0.172,0.043-0.266,0.066c-0.199,0.059-0.943,0.254-1.122,0.301  c-0.016,0.004-0.031,0.008-0.047,0.012c-0.035,0.012-0.07,0.02-0.106,0.031c-0.07,0.02-0.137,0.039-0.203,0.059  c-0.164,0.047-0.317,0.098-0.446,0.137c-0.098,0.035-0.184,0.066-0.25,0.094c-0.063,0.027-0.121,0.055-0.184,0.086  c-0.027,0.012-0.059,0.027-0.09,0.039C12.866,46.218,15.267,36.359,20.871,28.603z M18.806,67.404l-0.078,0.031  c-0.008-0.012-0.016-0.02-0.02-0.031c-2.957-0.106-5.323-2.538-5.323-5.522c0-3.051,2.472-5.526,5.522-5.526  c3.054,0,5.526,2.476,5.526,5.526s-2.472,5.526-5.526,5.526C18.873,67.408,18.842,67.408,18.806,67.404z M56.938,84.948  c-0.004,0-0.004,0-0.008,0c-14.459,2.878-29.32-3.453-37.228-15.902c1.13-0.121,2.186-0.508,3.105-1.091  c7.212,10.771,20.259,16.289,33.012,13.962c0.074,0.524,0.196,1.04,0.403,1.56c0.02,0.055,0.039,0.11,0.059,0.16  c0.18,0.458,0.418,0.896,0.684,1.302C56.954,84.94,56.946,84.944,56.938,84.948z M57.134,77.06  c-0.637,0.555-1.216,1.768-1.177,2.781c0,0.066,0.004,0.129,0.012,0.192c-0.016-0.008-0.027-0.016-0.043-0.023  c-4.212-2.167-8.948-6.48-13.188-12.652c-7.56,1.545-13.72,1.142-18.37-0.665c0.724-0.802,1.263-1.756,1.572-2.777  c3.602,1.244,8.541,1.69,14.932,0.555c-1.545-2.546-2.996-5.354-4.298-8.409l0.012-0.008c-0.199-0.489-1.259-3.097-1.291-3.164  c-0.966-2.558-1.744-5.002-2.347-7.325c-5.041,3.461-8.15,7.028-9.938,10.313c-0.896-0.591-1.916-0.974-2.98-1.119  c2.194-4.314,6.125-8.6,12.151-12.519c-1.467-7.423-1.048-13.481,0.731-18.065c0.802,0.724,1.756,1.259,2.777,1.568  c-1.228,3.563-1.682,8.432-0.594,14.721c2.143-1.22,4.509-2.397,7.11-3.52v-0.008c0.078-0.031,3.125-1.263,3.207-1.298  c2.98-1.134,5.921-2.022,8.76-2.687c-3.5-5.159-7.122-8.322-10.45-10.133c0.591-0.896,0.974-1.916,1.119-2.984  c4.38,2.229,8.733,6.25,12.703,12.429c7.044-1.255,13.289-1.095,17.767,0.109c-0.712,0.974-1.177,2.131-1.314,3.391  c-3.547-0.708-8.659-1.029-14.545-0.305c1.107,1.995,2.178,4.173,3.207,6.551h0.008c0.027,0.082,1.259,3.129,1.298,3.211  c1.056,2.773,1.897,5.514,2.542,8.17c5.037-3.825,8.541-7.904,10.505-11.029c0.027-0.039,0.047-0.074,0.07-0.109  c0.074,0.117,0.168,0.231,0.285,0.344c0.004,0,0.004,0,0.004,0c0.634,0.626,1.869,1.158,2.851,1.04  c-2.19,4.282-6.602,9.105-12.933,13.407c1.341,7.356,1.15,13.86-0.16,18.424c-0.004,0.012-0.008,0.027-0.012,0.039  c-0.051-0.059-0.11-0.113-0.168-0.168c-0.004-0.004-0.008-0.004-0.012-0.008c-0.548-0.493-1.369-0.86-2.131-1.001  c-0.004,0-0.008-0.004-0.012-0.004h-0.004c-0.379-0.07-0.743-0.082-1.052-0.031c0.012-0.055,0.023-0.113,0.035-0.168  c0.763-3.594,1.122-8.917,0.34-15.073c-2.401,1.427-5.026,2.765-7.861,3.977l-0.008-0.016c-0.489,0.199-3.097,1.263-3.164,1.291  c-2.343,0.884-4.584,1.611-6.727,2.19c3.798,4.967,7.834,8.416,10.931,10.352c0.023,0.016,0.043,0.031,0.066,0.043  C57.278,76.939,57.204,76.993,57.134,77.06z M62.961,86.743c-3.051,0-5.522-2.472-5.522-5.526c0-3.051,2.472-5.522,5.522-5.522  s5.526,2.472,5.526,5.522C68.487,84.272,66.011,86.743,62.961,86.743z M69.868,79.868c-0.203-1.122-0.669-2.151-1.338-3.019  c9.511-7.662,15.378-21.025,13.403-33.286c1.122-0.141,2.163-0.548,3.054-1.15C87.518,56.281,80.885,71.424,69.868,79.868z"/><g><path fill="#000000" d="M50,8.02c23.185,0,41.98,18.795,41.98,41.98S73.185,91.98,50,91.98S8.02,73.185,8.02,50   S26.815,8.02,50,8.02 M50,5.02C25.198,5.02,5.02,25.198,5.02,50S25.198,94.98,50,94.98S94.98,74.802,94.98,50S74.802,5.02,50,5.02   L50,5.02z"/></g><text x="0" y="115" fill="#000000" font-size="5px" font-weight="bold" font-family="'Helvetica Neue', Helvetica, Arial-Unicode, Arial, Sans-serif">Created by TNS</text><text x="0" y="120" fill="#000000" font-size="5px" font-weight="bold" font-family="'Helvetica Neue', Helvetica, Arial-Unicode, Arial, Sans-serif">from the Noun Project</text></svg>