<?xml version="1.0" encoding="utf-8"?>
<!-- Generator: Adobe Illustrator 17.0.0, SVG Export Plug-In . SVG Version: 6.00 Build 0)  -->
<!DOCTYPE svg PUBLIC "-//W3C//DTD SVG 1.1//EN" "http://www.w3.org/Graphics/SVG/1.1/DTD/svg11.dtd">
<svg version="1.1" id="Layer_1" xmlns="http://www.w3.org/2000/svg" xmlns:xlink="http://www.w3.org/1999/xlink" x="0px" y="0px"
	 width="623.969px" height="691.465px" viewBox="4.745 14.056 623.969 691.465"
	 enable-background="new 4.745 14.056 623.969 691.465" xml:space="preserve">
<g>
	<path fill="#FFFFFF" d="M265.543,260.344c-33.836,33.854-33.836,88.923,0,122.776c16.406,16.388,38.205,25.424,61.397,25.424
		c20.287,0,39.515-6.911,54.986-19.626V254.54c-15.477-12.703-34.699-19.62-54.986-19.62
		C303.748,234.92,281.948,243.95,265.543,260.344z M240.993,185.315H78.095c-17.126,0-31.002,13.882-31.002,31.002
		s13.882,31.002,31.002,31.002h105.769c7.518-14.412,17.251-27.776,29.079-39.592C221.533,199.132,230.969,191.661,240.993,185.315z
		 M292.056,160.51c30.824,0,55.808-24.984,55.808-55.808s-24.984-55.808-55.808-55.808s-55.807,24.984-55.807,55.808
		S261.233,160.51,292.056,160.51z M505.946,185.315h-93.072c10.042,6.346,19.466,13.816,28.061,22.418
		c11.822,11.816,21.555,25.174,29.079,39.592h35.931c17.126,0,31.008-13.882,31.008-31.002S523.073,185.315,505.946,185.315z
		 M202.109,423.773V606.97c0,20.543,16.662,37.205,37.205,37.205c20.549,0,37.205-16.662,37.205-37.205V474.889
		c-23.698-7.774-45.426-21.013-63.576-39.163C209.11,431.892,205.497,427.91,202.109,423.773z M307.522,481.747V606.97
		c0,20.543,16.662,37.205,37.205,37.205c20.543,0,37.205-16.662,37.205-37.205V473.359c-17.4,6.298-35.937,9.59-54.986,9.59
		C320.398,482.949,313.915,482.515,307.522,481.747z"/>
	<path fill="#FFFFFF" d="M572.475,514.66L458.657,400.842c-3.5-3.506-7.548-6.119-11.846-7.935
		c12.721-21.335,19.656-45.694,19.656-71.178c0-37.271-14.513-72.303-40.872-98.656c-26.353-26.353-61.385-40.866-98.644-40.866
		c-37.276,0-72.303,14.513-98.656,40.866c-26.353,26.353-40.872,61.385-40.872,98.656c0,37.265,14.513,72.297,40.872,98.65
		c26.353,26.353,61.385,40.866,98.656,40.866c25.472,0,49.825-6.929,71.166-19.65c1.822,4.304,4.429,8.346,7.935,11.852
		L519.87,567.265c7.262,7.268,16.787,10.9,26.305,10.9c9.524,0,19.043-3.631,26.305-10.9
		C587.006,552.746,587.006,529.191,572.475,514.66z M250.208,398.461c-20.495-20.495-31.782-47.747-31.782-76.726
		c0-28.99,11.287-56.236,31.782-76.738c20.495-20.49,47.747-31.788,76.738-31.788c28.978,0,56.218,11.292,76.732,31.788
		c20.49,20.495,31.782,47.747,31.782,76.738c0,28.984-11.287,56.23-31.782,76.726c-20.507,20.49-47.747,31.788-76.732,31.788
		C297.956,430.243,270.704,418.951,250.208,398.461z"/>
</g>
</svg>
