<?xml version="1.0" encoding="utf-8"?>
<!-- Generator: Adobe Illustrator 17.0.0, SVG Export Plug-In . SVG Version: 6.00 Build 0)  -->
<!DOCTYPE svg PUBLIC "-//W3C//DTD SVG 1.1//EN" "http://www.w3.org/Graphics/SVG/1.1/DTD/svg11.dtd">
<svg version="1.1" id="Layer_1" xmlns="http://www.w3.org/2000/svg" xmlns:xlink="http://www.w3.org/1999/xlink" x="0px" y="0px"
	 width="638.14px" height="695.445px" viewBox="0 0 638.14 695.445" enable-background="new 0 0 638.14 695.445"
	 xml:space="preserve">
<g>
	<path fill="#FFFFFF" d="M605.56,298.168c3.721-7.441,3.721-18.603,0-26.043l-26.044-26.043c-3.72-3.721-7.441-3.721-14.882-3.721
		c-3.721,0-11.161,0-14.882,3.721L348.845,443.268v14.882v37.205h59.528L605.56,298.168z"/>
	<rect x="125.615" y="160.51" fill="#FFFFFF" width="372.05" height="37.205"/>
	<polygon fill="#FFFFFF" points="125.615,272.125 471.622,272.125 497.665,246.082 497.665,234.92 125.615,234.92 	"/>
	<rect x="125.615" y="458.15" fill="#FFFFFF" width="186.025" height="37.205"/>
	<polygon fill="#FFFFFF" points="125.615,346.535 397.212,346.535 434.417,309.33 125.615,309.33 	"/>
	<path fill="#FFFFFF" d="M572.075,383.74v148.82c0,40.926-33.484,74.41-74.41,74.41h-372.05c-40.926,0-74.41-33.484-74.41-74.41
		V160.51c0-40.926,33.484-74.41,74.41-74.41h372.05c40.925,0,74.41,33.484,74.41,74.41v44.646c11.161,0,22.323,7.441,33.484,14.882
		l3.721,3.72V160.51c0-63.249-48.367-111.615-111.615-111.615h-372.05C62.367,48.895,14,97.261,14,160.51v372.05
		c0,63.249,48.367,111.615,111.615,111.615h372.05c63.248,0,111.615-48.367,111.615-111.615V346.535L572.075,383.74z"/>
	<polygon fill="#FFFFFF" points="125.615,420.945 322.802,420.945 326.522,417.224 360.007,383.74 125.615,383.74 	"/>
</g>
</svg>
